
<svg width="53px" height="60px" viewBox="9 6 53 60" version="1.1" xmlns="http://www.w3.org/2000/svg" xmlns:xlink="http://www.w3.org/1999/xlink">
    <!-- Generator: Sketch 39.1 (31720) - http://www.bohemiancoding.com/sketch -->
    <desc>Created with Sketch.</desc>
    <defs></defs>
    <g id="Page-1" stroke="none" stroke-width="1" fill="none" fill-rule="evenodd" transform="translate(10.000000, 7.000000)">
        <g id="Group-15" transform="translate(0.000000, 0.459700)">
            <path d="M0.032,32.6088 C0.487,24.5848 3.637,0.6688 3.637,0.6688 L3.744,0.6688 L3.792,0.6688 C4.984,1.6178 6.147,2.6068 7.261,3.6238 L6.835,4.0988 C3.86,30.2638 -2.885,39.7508 11.166,51.5438 L10.624,52.3878 C4.025,47.9198 -0.423,40.6518 0.032,32.6088" id="Fill-1" fill="#FFFFFF"></path>
            <path d="M25.2276,8.3048 L28.2706,11.3478 L30.4606,13.5378 L30.4706,13.5478 L21.0316,20.6218 L21.0026,20.6308 C19.3556,17.6368 17.4366,14.7878 15.2756,12.0838 C17.7656,7.3458 21.0316,4.1088 21.0316,4.1088 L25.2276,8.3048 Z" id="Fill-3" fill="#FFA9A9"></path>
            <polygon id="Fill-5" fill="#FFFFFF" points="34.8309 3.8665 34.5889 4.0995 28.2699 11.3475 25.2279 8.3045 32.2529 1.2885"></polygon>
            <path d="M27.8343,47.1059 C27.8343,37.3769 25.3633,28.5099 21.0023,20.6309 L21.0313,20.6219 L30.4703,13.5469 L38.4843,7.5299 L46.7113,1.3569 C46.7113,1.3569 50.0353,25.0109 50.5103,32.9479 C51.2663,45.5559 39.6183,55.8949 27.1273,56.8639 L27.1073,56.6509 C27.6313,53.5889 27.8343,50.3139 27.8343,47.1059" id="Fill-7" fill="#FFA9A9"></path>
            <path d="M11.1665,51.5442 C-2.8845,39.7512 3.8595,30.2632 6.8345,4.0992 L7.2615,3.6242 C8.9665,5.1452 10.5855,6.7352 12.1065,8.4012 C13.2205,9.5932 14.2775,10.8242 15.2755,12.0842 C17.4365,14.7882 19.3555,17.6372 21.0025,20.6312 C25.3635,28.5092 27.8345,37.3762 27.8345,47.1062 C27.8345,50.3132 27.6305,53.5892 27.1075,56.6512 L27.1265,56.8642 C27.0975,56.8742 27.0595,56.8742 27.0295,56.8742 L27.0295,56.8842 C26.4775,56.9222 26.3225,56.9802 25.3825,56.9802 L25.3825,57.0002 C20.0525,57.0002 14.8875,55.2852 10.6235,52.3872 L11.1665,51.5442 Z" id="Fill-9" fill="#FFA9A9"></path>
            <polygon id="Fill-11" fill="#FFA9A9" points="38.4843 7.5198 38.4843 7.5298 30.4703 13.5478 30.4603 13.5378 28.2703 11.3478 34.5883 4.0988 34.8313 3.8668"></polygon>
            <path d="M18.7155,1.7927 L21.0315,4.1087 C21.0315,4.1087 17.7655,7.3457 15.2755,12.0837 C14.2775,10.8247 13.2205,9.5937 12.1065,8.4017 L18.7155,1.7927 Z" id="Fill-13" fill="#FFFFFF"></path>
        </g>
        <path d="M21.0315,21.0812 L30.4705,14.0072 L38.4845,7.9892 L46.7115,1.8162 C46.7115,1.8162 50.0355,25.4712 50.5105,33.4072 C51.2665,46.0152 39.6185,56.3552 27.1265,57.3242 C27.0975,57.3342 27.0595,57.3342 27.0295,57.3342" id="Stroke-16" stroke="#9B4B23" stroke-width="2"></path>
        <path d="M27.0785,57.3434 L27.0305,57.3434 C26.4775,57.3824 26.3225,57.4404 25.3825,57.4404 L25.3825,57.4594 C20.0525,57.4594 14.8875,55.7444 10.6235,52.8474 C4.0245,48.3794 -0.4235,41.1114 0.0325,33.0684 C0.4875,25.0444 3.6365,1.1284 3.6365,1.1284 L3.7435,1.1284 L3.7925,1.1284 C4.9835,2.0784 6.1465,3.0664 7.2615,4.0834 C8.9665,5.6054 10.5855,7.1944 12.1065,8.8614 C13.2205,10.0534 14.2775,11.2844 15.2755,12.5434 C17.4365,15.2474 19.3555,18.0964 21.0025,21.0904 C25.3635,28.9694 27.8345,37.8364 27.8345,47.5654 C27.8345,50.7734 27.6305,54.0484 27.1075,57.1104" id="Stroke-18" stroke="#9B4B23" stroke-width="2"></path>
        <polyline id="Stroke-20" stroke="#9B4B23" stroke-width="2" points="38.4843 7.9795 34.8313 4.3265 32.2533 1.7485 25.2273 8.7645 25.1013 8.8905"></polyline>
        <polyline id="Stroke-22" stroke="#9B4B23" stroke-width="2" points="12.0774 8.8904 12.1064 8.8614 18.7154 2.2524 21.0314 4.5684 25.2274 8.7644 28.2704 11.8074 30.4604 13.9974"></polyline>
    </g>
</svg>