
<svg width="70px" height="60px" viewBox="0 5 70 60" version="1.1" xmlns="http://www.w3.org/2000/svg" xmlns:xlink="http://www.w3.org/1999/xlink">
    <!-- Generator: Sketch 39.1 (31720) - http://www.bohemiancoding.com/sketch -->
    <desc>Created with Sketch.</desc>
    <defs></defs>
    <g id="Page-1" stroke="none" stroke-width="1" fill="none" fill-rule="evenodd" transform="translate(1.000000, 6.000000)">
        <g id="Group-19" transform="translate(0.000000, 0.002500)">
            <path d="M19,51 C20.09,50.81 20.81,49.77 20.62,48.68 L17.84,32.93 C17.67,31.96 16.82,31.27 15.87,31.27 C15.76,31.27 15.65,31.28 15.53,31.3 C14.44,31.5 13.71,32.53 13.9,33.62 L16.68,49.38 C16.87,50.47 17.91,51.19 19,51 L19,51 Z M36,49 L36,33 C36,32.45 35.78,31.95 35.41,31.59 C35.05,31.22 34.55,31 34,31 C32.9,31 32,31.9 32,33 L32,49 C32,50.1 32.9,51 34,51 C35.1,51 36,50.1 36,49 L36,49 Z M53.62,33.62 C53.81,32.53 53.09,31.5 52,31.3 C51.88,31.28 51.77,31.27 51.65,31.27 C50.7,31.27 49.85,31.96 49.68,32.93 L46.9,48.68 C46.71,49.77 47.44,50.81 48.53,51 C49.61,51.19 50.65,50.47 50.84,49.38 L53.62,33.62 Z M18,57 C13.75,54.5 11.84,53.02 11.53,50.69 C10.75,44.69 9,25 9,25 L9,24 L63.72,24 L59.44,51.83 C59.03,54.79 56.49,57 53.5,57 L18,57 Z" id="Fill-1" fill="#D1F4B5"></path>
            <path d="M11.53,50.69 C11.84,53.02 13.75,54.5 18,57 L14.5,57 C11.51,57 8.97,54.79 8.56,51.83 L4.28,24 L5.88,24 L9,24 L9,25 C9,25 10.75,44.69 11.53,50.69" id="Fill-3" fill="#FFFFFF"></path>
            <path d="M63.72,24 L9,24 L5.88,24 C1.62,21.12 5.88,18.73 5.88,18.73 L5.88,18 L11.53,18 L16.83,18 L51.17,18 L56.47,18 L65,18 C66.66,18 68,19.34 68,21 C68,21.83 67.66,22.58 67.12,23.12 C66.58,23.66 65.83,24 65,24 L63.72,24 Z" id="Fill-5" fill="#D1F4B5"></path>
            <path d="M5.88,18.73 C5.88,18.73 1.62,21.12 5.88,24 L4.28,24 L3,24 C1.34,24 0,22.66 0,21 C0,20.17 0.34,19.42 0.88,18.88 C1.42,18.34 2.17,18 3,18 L5.88,18 L5.88,18.73 Z" id="Fill-7" fill="#FFFFFF"></path>
            <path d="M56.47,18 L51.17,18 L37.59,4.41 C36.8,3.63 36.8,2.37 37.59,1.59 C38.37,0.8 39.63,0.8 40.41,1.59 L55.97,17.14 C56.22,17.39 56.38,17.69 56.47,18" id="Fill-9" fill="#D1F4B5"></path>
            <path d="M52,31.3 C53.09,31.5 53.81,32.53 53.62,33.62 L50.84,49.38 C50.65,50.47 49.61,51.19 48.53,51 C47.44,50.81 46.71,49.77 46.9,48.68 L49.68,32.93 C49.85,31.96 50.7,31.27 51.65,31.27 C51.77,31.27 51.88,31.28 52,31.3" id="Fill-11" fill="#FFFFFF"></path>
            <path d="M36,33 L36,49 C36,50.1 35.1,51 34,51 C32.9,51 32,50.1 32,49 L32,33 C32,31.9 32.9,31 34,31 C34.55,31 35.05,31.22 35.41,31.59 C35.78,31.95 36,32.45 36,33" id="Fill-13" fill="#FFFFFF"></path>
            <path d="M30.41,1.59 C31.2,2.37 31.2,3.63 30.41,4.41 L16.83,18 L11.53,18 C11.62,17.69 11.78,17.39 12.03,17.14 L27.59,1.59 C28.37,0.8 29.63,0.8 30.41,1.59" id="Fill-15" fill="#D1F4B5"></path>
            <path d="M20.62,48.68 C20.81,49.77 20.09,50.81 19,51 C17.91,51.19 16.87,50.47 16.68,49.38 L13.9,33.62 C13.71,32.53 14.44,31.5 15.53,31.3 C15.65,31.28 15.76,31.27 15.87,31.27 C16.82,31.27 17.67,31.96 17.84,32.93 L20.62,48.68 Z" id="Fill-17" fill="#FFFFFF"></path>
        </g>
        <path d="M63.72,24.0025 L59.44,51.8325 C59.03,54.7925 56.49,57.0025 53.5,57.0025 L18,57.0025 L14.5,57.0025 C11.51,57.0025 8.97,54.7925 8.56,51.8325 L4.28,24.0025" id="Stroke-20" stroke="#9B4B23" stroke-width="2"></path>
        <path d="M19,51.0025 C17.91,51.1925 16.87,50.4725 16.68,49.3825 L13.9,33.6225 C13.71,32.5325 14.44,31.5025 15.53,31.3025 C15.65,31.2825 15.76,31.2725 15.87,31.2725 C16.82,31.2725 17.67,31.9625 17.84,32.9325 L20.62,48.6825 C20.81,49.7725 20.09,50.8125 19,51.0025 L19,51.0025 Z" id="Stroke-22" stroke="#9B4B23" stroke-width="2"></path>
        <path d="M48.53,51.0025 C49.61,51.1925 50.65,50.4725 50.84,49.3825 L53.62,33.6225 C53.81,32.5325 53.09,31.5025 52,31.3025 C51.88,31.2825 51.77,31.2725 51.65,31.2725 C50.7,31.2725 49.85,31.9625 49.68,32.9325 L46.9,48.6825 C46.71,49.7725 47.44,50.8125 48.53,51.0025 L48.53,51.0025 Z" id="Stroke-24" stroke="#9B4B23" stroke-width="2"></path>
        <path d="M34,51.0025 C32.9,51.0025 32,50.1025 32,49.0025 L32,33.0025 C32,31.9025 32.9,31.0025 34,31.0025 C34.55,31.0025 35.05,31.2225 35.41,31.5925 C35.78,31.9525 36,32.4525 36,33.0025 L36,49.0025 C36,50.1025 35.1,51.0025 34,51.0025 L34,51.0025 Z" id="Stroke-26" stroke="#9B4B23" stroke-width="2"></path>
        <path d="M16.83,18.0025 L51.17,18.0025" id="Stroke-28" stroke="#9B4B23" stroke-width="2"></path>
        <path d="M56.47,18.0025 L65,18.0025 C66.66,18.0025 68,19.3425 68,21.0025 C68,21.8325 67.66,22.5825 67.12,23.1225 C66.58,23.6625 65.83,24.0025 65,24.0025 L63.72,24.0025 L9,24.0025 L5.88,24.0025 L4.28,24.0025 L3,24.0025 C1.34,24.0025 0,22.6625 0,21.0025 C0,20.1725 0.34,19.4225 0.88,18.8825 C1.42,18.3425 2.17,18.0025 3,18.0025 L5.88,18.0025 L11.53,18.0025" id="Stroke-30" stroke="#9B4B23" stroke-width="2"></path>
        <path d="M56.47,18.0025 C56.38,17.6925 56.22,17.3925 55.97,17.1425 L40.41,1.5925 C39.63,0.8025 38.37,0.8025 37.59,1.5925 C36.8,2.3725 36.8,3.6325 37.59,4.4125 L51.17,18.0025 L56.47,18.0025 L56.47,18.0025 Z" id="Stroke-32" stroke="#9B4B23" stroke-width="2"></path>
        <path d="M16.83,18.0025 L30.41,4.4125 C31.2,3.6325 31.2,2.3725 30.41,1.5925 C29.63,0.8025 28.37,0.8025 27.59,1.5925 L12.03,17.1425 C11.78,17.3925 11.62,17.6925 11.53,18.0025 L16.83,18.0025 L16.83,18.0025 Z" id="Stroke-34" stroke="#9B4B23" stroke-width="2"></path>
    </g>
</svg>