
<svg width="69px" height="55px" viewBox="0 7 69 55" version="1.1" xmlns="http://www.w3.org/2000/svg" xmlns:xlink="http://www.w3.org/1999/xlink">
    <!-- Generator: Sketch 39.1 (31720) - http://www.bohemiancoding.com/sketch -->
    <desc>Created with Sketch.</desc>
    <defs>
        <path d="M14.3197631,0.3853 C11.9162822,5.72957898 9.83,10.666 9.83,10.666 L0.1967,20.2993 L41.7686,20.2993 L41.7686,0.3853 L14.3197631,0.3853 L14.3197631,0.3853 Z" id="path-1"></path>
        <path d="M0.712793507,37.7832065 L9.83,28.666 C9.83,28.666 18.824,7.385 20.977,5.358 C21.9604538,4.43258614 24.5019728,2.42439858 27.2028134,0.527222295 L48.3566414,0.527222295 C48.5179929,0.585101746 48.6793216,0.643039348 48.8405322,0.700997632 L48.8405322,37.7832065 L0.712793507,37.7832065 L0.712793507,37.7832065 Z" id="path-3"></path>
        <path d="M0.713491521,40.7825085 L9.83,31.666 C9.83,31.666 18.824,10.385 20.977,8.358 C22.6107574,6.8206611 28.5443606,2.29515477 32.3651378,0.2545 L38.8893147,0.2545 C42.3071868,1.35553709 47.4075093,3.17314857 51.90075,4.8081551 L51.90075,40.7825085 L0.713491521,40.7825085 L0.713491521,40.7825085 Z" id="path-5"></path>
    </defs>
    <g id="Page-1" stroke="none" stroke-width="1" fill="none" fill-rule="evenodd" transform="translate(2.000000, 8.000000)">
        <g id="Group-20" transform="translate(3.000000, 11.112800)">
            <g id="Group-16">
                <g id="Group-3" transform="translate(11.000000, 21.000000)">
                    <mask id="mask-2" fill="white">
                        <use xlink:href="#path-1"></use>
                    </mask>
                    <g id="Clip-2"></g>
                    <path d="M-5.6894,6.5193 C-2.8874,14.3943 4.6726,20.2913 13.5646,20.2993 L27.4086,20.2993 C32.8256,20.2993 37.7486,17.9413 41.3956,14.5233 C41.5176,14.3303 41.6466,14.1293 41.7686,13.9213 C38.0786,17.5403 32.9976,19.7833 27.4086,19.7833 L13.5646,19.7833 C4.6726,19.7903 -2.8874,14.1363 -5.6894,6.2613 C-5.9184,5.6163 -6.3344,5.0573 -6.8574,4.6063 L-9.4944,2.3413 C-10.1174,1.8043 -10.5404,1.1233 -10.7624,0.3853 C-10.5544,1.1523 -10.1254,1.8543 -9.4874,2.4063 L-6.8644,4.7283 C-6.3344,5.1723 -5.9184,5.8743 -5.6894,6.5193" id="Fill-1" fill="#F8E989" mask="url(#mask-2)"></path>
                </g>
                <g id="Group-6" transform="translate(11.000000, 3.000000)">
                    <mask id="mask-4" fill="white">
                        <use xlink:href="#path-3"></use>
                    </mask>
                    <g id="Clip-5"></g>
                    <path d="M2.1211,13.6992 C1.3181,14.4872 0.0211,14.4802 -0.7669,13.6782 C-1.5549,12.8752 -1.5479,11.5782 -0.7449,10.7902 C-0.7449,10.7902 -0.6309,10.6752 -0.4079,10.4672 C-0.1579,10.2172 0.1501,9.9662 0.5591,9.6152 C0.9821,9.2922 1.4831,8.8912 2.0921,8.4972 C2.6801,8.0812 3.3961,7.6942 4.1491,7.2432 C4.9301,6.8632 5.7611,6.3902 6.6861,6.0252 C7.5961,5.6162 8.5771,5.2792 9.5951,4.9352 C10.6121,4.5912 11.7011,4.3482 12.7831,4.0682 C13.8871,3.8822 14.9901,3.6102 16.1081,3.4952 C17.2411,3.3952 18.3511,3.1872 19.4621,3.1942 C20.5651,3.1802 21.6471,3.0722 22.6941,3.1442 C23.7401,3.1872 24.7501,3.2232 25.7101,3.2662 C26.6561,3.3662 27.5521,3.4742 28.3761,3.5672 C28.7921,3.6102 29.1931,3.6532 29.5651,3.6962 C29.9381,3.7672 30.2891,3.8322 30.6191,3.8892 C31.2851,4.0112 31.8661,4.1192 32.3391,4.2052 C33.2841,4.3772 33.8291,4.4772 33.8291,4.4772 C34.0801,4.5272 34.2661,4.7562 34.2451,5.0212 C34.2161,5.3082 33.9721,5.5092 33.6861,5.4802 L33.6571,5.4802 C33.6571,5.4802 33.1201,5.4302 32.1671,5.3372 C31.6941,5.2942 31.1201,5.2362 30.4681,5.1722 C30.1391,5.1432 29.7951,5.1152 29.4151,5.0792 C29.0491,5.0722 28.6631,5.0572 28.2541,5.0502 C27.4521,5.0362 26.5771,5.0072 25.6531,4.9862 C24.7211,5.0292 23.7541,5.0792 22.7511,5.1222 C21.7411,5.1432 20.7161,5.3372 19.6771,5.4442 C18.6311,5.5302 17.5991,5.8172 16.5531,6.0032 C15.5141,6.1972 14.5101,6.5412 13.5071,6.7982 C12.5401,7.1502 11.5581,7.4582 10.6771,7.8522 C9.7741,8.2392 8.9141,8.6262 8.1471,9.0632 C7.3451,9.4502 6.6571,9.9372 5.9981,10.3242 C5.3891,10.7752 4.7941,11.1552 4.3351,11.5562 C3.8551,11.9362 3.4751,12.3022 3.1601,12.5882 C2.8661,12.8822 2.6081,13.1262 2.5151,13.2482 C2.3791,13.4122 2.3071,13.4982 2.3071,13.4982 L2.2431,13.5772 L2.1211,13.6992 M-5.6899,24.2612 C-2.8879,32.1362 4.6721,37.7902 13.5651,37.7832 L27.4091,37.7832 C32.9981,37.7832 38.0781,35.5402 41.7691,31.9212 C42.3131,30.9752 42.8001,29.8862 43.2091,28.9192 C43.4671,28.3172 43.8971,27.5432 44.4201,27.1352 L45.9891,25.8952 C46.0541,25.7732 46.1111,25.6582 46.1541,25.5292 C46.2901,25.2362 46.4121,24.9282 46.5341,24.6192 C46.7631,24.0032 47.1711,23.4662 47.6731,23.0362 L48.8201,22.0472 C48.9411,20.8362 48.5261,19.5752 47.5371,18.6582 L44.8431,16.2212 C44.3551,15.7772 43.9681,15.3472 43.7531,14.7172 C41.1591,6.9202 33.8931,1.4172 25.1441,1.0802 L11.3071,0.5432 C6.0621,0.3422 1.2041,2.0482 -2.5289,5.0642 C-2.5439,5.0792 -2.5579,5.0932 -2.5579,5.1072 C-2.7009,5.2792 -2.8299,5.4512 -2.9589,5.6382 C-3.1099,5.8312 -3.2459,6.0252 -3.3749,6.2252 C-3.6039,6.5692 -3.8259,6.9202 -4.0409,7.2642 C-4.3279,7.7372 -4.5789,8.2172 -4.8149,8.7122 C-4.9079,8.8912 -4.9869,9.0702 -5.0659,9.2492 C-5.1949,9.5072 -5.3029,9.7722 -5.4099,10.0372 C-5.6469,10.6322 -6.0479,11.1482 -6.5419,11.5712 L-9.4939,14.1072 C-9.7949,14.3652 -10.0459,14.6592 -10.2539,14.9672 C-10.3969,15.1972 -10.5259,15.4402 -10.6269,15.6842 C-10.7199,15.9352 -10.7989,16.1852 -10.8559,16.4432 C-10.8559,16.4432 -10.8629,16.4512 -10.8559,16.4582 C-10.9059,16.7232 -10.9279,16.9882 -10.9279,17.2602 C-10.9279,17.5182 -10.8989,17.7622 -10.8559,18.0062 C-10.8269,18.1352 -10.7989,18.2642 -10.7629,18.3852 C-10.5409,19.1232 -10.1179,19.8042 -9.4939,20.3422 L-6.8579,22.6062 C-6.3339,23.0572 -5.9189,23.6162 -5.6899,24.2612" id="Fill-4" fill="#F8E989" mask="url(#mask-4)"></path>
                </g>
                <g id="Group-9" transform="translate(0.000000, 21.000000)" fill="#F8E989">
                    <path d="M0.2373,0.3855 C0.2013,0.2635 0.1733,0.1345 0.1443,0.0055 C0.1653,0.1415 0.1943,0.2705 0.2373,0.3855" id="Fill-7"></path>
                </g>
                <path d="M10.2334,16.6777 C11.0214,17.4807 12.3184,17.4877 13.1214,16.6987 C13.1644,16.6567 13.2004,16.6207 13.2434,16.5777 L13.3074,16.4987 C13.3074,16.4987 13.3794,16.4127 13.5154,16.2477 C13.6084,16.1257 13.8664,15.8827 14.1604,15.5887 C14.4754,15.3017 14.8554,14.9367 15.3354,14.5567 C15.7944,14.1557 16.3884,13.7757 16.9974,13.3237 C17.6574,12.9377 18.3444,12.4497 19.1474,12.0627 C19.9144,11.6257 20.7744,11.2387 21.6774,10.8517 C22.5584,10.4577 23.5404,10.1497 24.5074,9.7987 C25.5104,9.5407 26.5134,9.1967 27.5524,9.0037 C28.5994,8.8167 29.6304,8.5307 30.6774,8.4447 C31.7164,8.3367 32.7404,8.1437 33.7514,8.1217 C34.7544,8.0787 35.7214,8.0287 36.6534,7.9857 C37.5774,8.0077 38.4514,8.0357 39.2544,8.0507 C39.6624,8.0577 40.0494,8.0717 40.4154,8.0787 C40.7944,8.1147 41.1384,8.1437 41.4684,8.1717 C42.1204,8.2367 42.6934,8.2937 43.1664,8.3367 C44.1194,8.4297 44.6574,8.4807 44.6574,8.4807 L44.6854,8.4807 C44.9724,8.5087 45.2164,8.3087 45.2444,8.0217 C45.2664,7.7567 45.0804,7.5267 44.8294,7.4767 C44.8294,7.4767 44.2844,7.3767 43.3384,7.2047 C42.8654,7.1187 42.2854,7.0117 41.6194,6.8897 C41.2894,6.8317 40.9384,6.7677 40.5654,6.6957 C40.1934,6.6527 39.7914,6.6097 39.3764,6.5667 C38.5524,6.4737 37.6564,6.3667 36.7104,6.2657 C35.7504,6.2227 34.7394,6.1877 33.6934,6.1447 C32.6474,6.0727 31.5654,6.1797 30.4624,6.1947 C29.3514,6.1877 28.2404,6.3947 27.1084,6.4957 C25.9904,6.6097 24.8874,6.8827 23.7834,7.0687 C22.7014,7.3477 21.6124,7.5917 20.5954,7.9357 C19.5774,8.2797 18.5954,8.6167 17.6854,9.0247 C16.7614,9.3907 15.9304,9.8627 15.1494,10.2427 C14.3964,10.6947 13.6804,11.0817 13.0924,11.4967 C12.4834,11.8907 11.9814,12.2927 11.5594,12.6147 C11.1504,12.9657 10.8424,13.2167 10.5914,13.4677 C10.3694,13.6757 10.2544,13.7897 10.2544,13.7897 C9.4524,14.5777 9.4454,15.8747 10.2334,16.6777" id="Fill-10" fill="#FFFFFF"></path>
                <path d="M24.5647,0.2541 C18.0157,0.2541 12.2037,3.3141 8.4707,8.0651 C12.2037,5.0481 17.0627,3.3421 22.3077,3.5431 L36.1447,4.0801 C44.8937,4.4171 52.1597,9.9201 54.7537,17.7171 C54.9687,18.3471 55.3557,18.7771 55.8427,19.2211 L58.5367,21.6581 C59.5257,22.5751 59.9417,23.8361 59.8197,25.0471 L61.4607,23.6351 C63.3807,21.9871 63.3807,19.0491 61.4607,17.4011 L58.6727,15.0011 C58.1717,14.5711 57.7627,14.0341 57.5337,13.4171 C54.6317,5.7291 47.1647,0.2541 38.4087,0.2541 L24.5647,0.2541 Z" id="Fill-12" fill="#FFFFFF"></path>
                <path d="M57.5338,27.6197 C57.4118,27.9277 57.2898,28.2357 57.1538,28.5297 C57.2898,28.2357 57.4188,27.9347 57.5338,27.6197" id="Fill-14" fill="#F8E989"></path>
            </g>
            <g id="Group-19" transform="translate(12.000000, 1.000000)">
                <mask id="mask-6" fill="white">
                    <use xlink:href="#path-5"></use>
                </mask>
                <g id="Clip-18"></g>
                <path d="M-11.254,16.9675 C-11.046,16.6595 -10.795,16.3655 -10.494,16.1075 L-7.542,13.5715 C-7.048,13.1485 -6.646,12.6325 -6.41,12.0375 C-6.303,11.7725 -6.195,11.5075 -6.066,11.2495 C-5.994,11.0635 -5.908,10.8915 -5.815,10.7115 C-5.579,10.2175 -5.328,9.7375 -5.041,9.2645 C-4.834,8.9135 -4.611,8.5625 -4.375,8.2255 C-4.246,8.0245 -4.11,7.8315 -3.959,7.6375 C-3.838,7.4585 -3.701,7.2795 -3.558,7.1075 C-3.558,7.0935 -3.544,7.0785 -3.529,7.0645 C0.204,2.3135 6.015,-0.7455 12.565,-0.7455 L26.409,-0.7455 C35.165,-0.7455 42.632,4.7285 45.534,12.4175 C45.763,13.0335 46.171,13.5715 46.673,14.0005 L49.46,16.4015 C51.381,18.0495 51.381,20.9875 49.46,22.6355 L47.82,24.0475 L46.673,25.0365 C46.171,25.4655 45.763,26.0035 45.534,26.6195 C45.412,26.9275 45.29,27.2355 45.154,27.5295 C45.111,27.6585 45.054,27.7735 44.989,27.8955 C43.957,30.1595 42.517,32.2015 40.769,33.9215 C37.078,37.5405 31.998,39.7825 26.409,39.7825 L12.565,39.7825 C3.672,39.7905 -3.888,34.1365 -6.689,26.2615 C-6.919,25.6165 -7.334,25.0575 -7.857,24.6065 L-10.494,22.3415 C-11.118,21.8045 -11.541,21.1235 -11.763,20.3855 C-11.799,20.2635 -11.827,20.1345 -11.856,20.0055 C-11.899,19.7625 -11.928,19.5185 -11.928,19.2605 C-11.935,18.9955 -11.906,18.7235 -11.856,18.4575 C-11.863,18.4505 -11.856,18.4435 -11.856,18.4435 C-11.799,18.1855 -11.727,17.9275 -11.627,17.6845 C-11.526,17.4405 -11.404,17.2035 -11.254,16.9675 L-11.254,16.9675 Z" id="Stroke-17" stroke="#9B4B23" stroke-width="2" mask="url(#mask-6)"></path>
            </g>
        </g>
        <g id="Group-36" transform="translate(0.000000, 0.112800)">
            <g id="Group-33">
                <path d="M48.692,12.5549 C52.279,20.1049 51.104,29.6199 44.821,35.9129 L35.032,45.7019 C31.201,49.5329 26.053,51.3469 21.057,51.5089 C20.834,51.4579 20.601,51.4079 20.368,51.3469 C25.536,51.2959 30.715,49.2899 34.667,45.3379 L44.456,35.5479 C50.749,29.2659 52.097,19.9219 48.51,12.3729 C48.216,11.7539 48.114,11.0649 48.165,10.3759 L48.429,6.9099 C48.489,6.0899 48.307,5.3089 47.942,4.6299 C48.337,5.3189 48.53,6.1199 48.469,6.9609 L48.256,10.4569 C48.195,11.1459 48.398,11.9369 48.692,12.5549" id="Fill-21" fill="#F8E989"></path>
                <path d="M35.5181,10.4268 C36.6431,10.4168 37.5551,9.4948 37.5451,8.3698 C37.5351,7.2448 36.6121,6.3328 35.4881,6.3428 C35.4881,6.3428 35.3251,6.3428 35.0211,6.3528 C34.6671,6.3528 34.2721,6.3938 33.7341,6.4338 C33.2071,6.5048 32.5691,6.5758 31.8601,6.7278 C31.1501,6.8498 30.3701,7.0828 29.5191,7.2958 C28.6981,7.5788 27.7761,7.8328 26.8641,8.2278 C25.9311,8.5828 24.9991,9.0388 24.0361,9.5148 C23.0741,9.9908 22.1311,10.5888 21.1691,11.1568 C20.2571,11.8048 19.2841,12.3928 18.4121,13.1018 C17.5411,13.8318 16.6081,14.4698 15.8281,15.2608 C15.0381,16.0308 14.1971,16.7198 13.5071,17.5098 C12.7981,18.2808 12.1091,19.0198 11.4601,19.7298 C10.8631,20.4698 10.3051,21.1788 9.7881,21.8268 C9.5251,22.1518 9.2721,22.4658 9.0391,22.7598 C8.8261,23.0738 8.6231,23.3678 8.4301,23.6408 C8.0451,24.1988 7.7111,24.6848 7.4371,25.0798 C6.8901,25.8708 6.5761,26.3268 6.5761,26.3268 C6.4341,26.5398 6.4651,26.8338 6.6671,27.0058 C6.8901,27.1878 7.2041,27.1578 7.3871,26.9348 L7.4071,26.9148 C7.4071,26.9148 7.7521,26.4988 8.3601,25.7588 C8.6641,25.3948 9.0281,24.9488 9.4441,24.4418 C9.6571,24.1888 9.8801,23.9248 10.1231,23.6308 C10.3761,23.3678 10.6401,23.0838 10.9231,22.7898 C11.4811,22.2128 12.0791,21.5738 12.7171,20.9048 C13.4061,20.2768 14.1261,19.6278 14.8651,18.9488 C15.5951,18.2498 16.4561,17.6618 17.2671,17.0038 C18.0681,16.3248 19.0001,15.7978 19.8711,15.1898 C20.7431,14.5918 21.6961,14.1258 22.5871,13.5988 C23.5201,13.1628 24.4321,12.6868 25.3341,12.3418 C26.2461,11.9768 27.1271,11.6428 27.9781,11.4098 C28.8201,11.1158 29.6511,10.9738 30.3901,10.7818 C31.1401,10.6698 31.8291,10.5178 32.4371,10.4778 C33.0451,10.4068 33.5721,10.3968 33.9981,10.3758 C34.4131,10.3758 34.7681,10.3658 34.9201,10.3858 C35.1331,10.4068 35.2441,10.4168 35.2441,10.4168 L35.3461,10.4268 L35.5181,10.4268 Z M48.5091,12.3728 C52.0971,19.9218 50.7491,29.2658 44.4561,35.5488 L34.6671,45.3378 C30.7151,49.2898 25.5361,51.2958 20.3681,51.3468 C19.3141,51.0628 18.1991,50.6378 17.2271,50.2418 C16.6191,49.9988 15.7671,49.7558 15.1091,49.8368 L13.1221,50.0698 C12.9911,50.0298 12.8691,49.9888 12.7471,49.9278 C12.4431,49.8168 12.1391,49.6848 11.8351,49.5528 C11.2381,49.2798 10.5691,49.1888 9.9101,49.2388 L8.4001,49.3508 C7.4581,48.5808 6.8601,47.3948 6.9101,46.0468 L7.0931,42.4188 C7.1231,41.7608 7.0931,41.1828 6.7991,40.5848 C3.1201,33.2378 4.3671,24.2088 10.3151,17.7838 L19.7191,7.6198 C23.2871,3.7688 27.9281,1.5398 32.7011,1.0328 C32.7211,1.0328 32.7411,1.0328 32.7511,1.0428 C32.9741,1.0628 33.1871,1.0938 33.4101,1.1338 C33.6531,1.1648 33.8861,1.2048 34.1201,1.2558 C34.5251,1.3368 34.9301,1.4278 35.3251,1.5188 C35.8631,1.6508 36.3791,1.8128 36.8961,1.9958 C37.0891,2.0568 37.2711,2.1268 37.4541,2.1978 C37.7271,2.2898 37.9911,2.4008 38.2541,2.5128 C38.8421,2.7658 39.4901,2.8468 40.1391,2.7958 L44.0201,2.5018 C44.4151,2.4718 44.8011,2.5018 45.1651,2.5728 C45.4291,2.6338 45.6921,2.7148 45.9351,2.8168 C46.1791,2.9278 46.4121,3.0498 46.6351,3.1908 C46.6351,3.1908 46.6451,3.1908 46.6451,3.2018 C46.8681,3.3538 47.0701,3.5258 47.2631,3.7178 C47.4451,3.9008 47.5971,4.0928 47.7391,4.2958 C47.8101,4.4078 47.8811,4.5188 47.9421,4.6298 C48.3071,5.3088 48.4891,6.0898 48.4281,6.9108 L48.1651,10.3758 C48.1141,11.0648 48.2161,11.7548 48.5091,12.3728 L48.5091,12.3728 Z" id="Fill-23" fill="#F8E989"></path>
                <path d="M47.942,4.6303 C47.881,4.5193 47.81,4.4073 47.739,4.2963 C47.82,4.4073 47.891,4.5193 47.942,4.6303" id="Fill-25" fill="#F8E989"></path>
                <path d="M37.5448,8.3696 C37.5548,9.4946 36.6428,10.4166 35.5178,10.4266 L35.3458,10.4266 L35.2448,10.4166 C35.2448,10.4166 35.1328,10.4066 34.9198,10.3866 C34.7678,10.3656 34.4138,10.3756 33.9978,10.3756 C33.5728,10.3966 33.0458,10.4066 32.4378,10.4776 C31.8298,10.5176 31.1398,10.6696 30.3908,10.7816 C29.6508,10.9736 28.8198,11.1156 27.9788,11.4096 C27.1278,11.6426 26.2458,11.9776 25.3338,12.3416 C24.4318,12.6866 23.5198,13.1626 22.5878,13.5986 C21.6958,14.1256 20.7428,14.5916 19.8718,15.1896 C18.9998,15.7976 18.0678,16.3246 17.2668,17.0036 C16.4568,17.6626 15.5948,18.2496 14.8658,18.9496 C14.1258,19.6286 13.4058,20.2766 12.7168,20.9046 C12.0788,21.5736 11.4808,22.2126 10.9238,22.7896 C10.6398,23.0836 10.3758,23.3676 10.1228,23.6306 C9.8798,23.9246 9.6568,24.1886 9.4438,24.4416 C9.0288,24.9486 8.6638,25.3946 8.3598,25.7596 C7.7518,26.4986 7.4068,26.9146 7.4068,26.9146 L7.3868,26.9346 C7.2048,27.1576 6.8898,27.1876 6.6668,27.0056 C6.4648,26.8336 6.4338,26.5396 6.5758,26.3266 C6.5758,26.3266 6.8898,25.8706 7.4378,25.0806 C7.7108,24.6846 8.0458,24.1986 8.4308,23.6416 C8.6228,23.3676 8.8258,23.0736 9.0388,22.7596 C9.2718,22.4656 9.5248,22.1516 9.7888,21.8276 C10.3048,21.1786 10.8628,20.4696 11.4608,19.7296 C12.1088,19.0206 12.7978,18.2806 13.5078,17.5106 C14.1968,16.7196 15.0378,16.0306 15.8278,15.2606 C16.6088,14.4706 17.5408,13.8316 18.4118,13.1016 C19.2838,12.3926 20.2568,11.8046 21.1688,11.1566 C22.1318,10.5886 23.0738,9.9906 24.0368,9.5146 C24.9988,9.0386 25.9318,8.5826 26.8638,8.2276 C27.7758,7.8326 28.6978,7.5796 29.5188,7.2956 C30.3698,7.0826 31.1508,6.8496 31.8598,6.7276 C32.5688,6.5756 33.2078,6.5046 33.7348,6.4336 C34.2718,6.3936 34.6668,6.3526 35.0218,6.3526 C35.3258,6.3426 35.4878,6.3426 35.4878,6.3426 C36.6128,6.3326 37.5348,7.2446 37.5448,8.3696" id="Fill-27" fill="#FFFFFF"></path>
                <path d="M15.7978,6.8901 C20.4288,2.2591 26.7018,0.3131 32.7008,1.0331 C27.9278,1.5391 23.2868,3.7691 19.7198,7.6201 L10.3158,17.7841 C4.3668,24.2091 3.1208,33.2381 6.7988,40.5851 C7.0928,41.1831 7.1238,41.7601 7.0928,42.4191 L6.9108,46.0471 C6.8598,47.3951 7.4578,48.5801 8.3998,49.3501 L6.2418,49.5131 C3.7188,49.7051 1.6408,47.6281 1.8338,45.1041 L2.1068,41.4361 C2.1578,40.7771 2.0668,40.1081 1.7928,39.5111 C-1.5922,32.0221 -0.1832,22.8711 6.0088,16.6791 L15.7978,6.8901 Z" id="Fill-29" fill="#FFFFFF"></path>
                <path d="M11.8355,49.5532 C12.1395,49.6852 12.4435,49.8162 12.7475,49.9282 C12.4435,49.8162 12.1395,49.6952 11.8355,49.5532" id="Fill-31" fill="#F8E989"></path>
            </g>
            <path d="M45.1654,2.5731 C44.8004,2.5021 44.4154,2.4721 44.0204,2.5021 L40.1394,2.7961 C39.4904,2.8471 38.8424,2.7661 38.2544,2.5121 C37.9904,2.4011 37.7274,2.2891 37.4534,2.1981 C37.2714,2.1171 37.0884,2.0561 36.8964,1.9951 C36.3794,1.8131 35.8624,1.6511 35.3254,1.5191 C34.9304,1.4181 34.5254,1.3271 34.1194,1.2561 C33.8864,1.2051 33.6534,1.1641 33.4104,1.1341 C33.1974,1.0931 32.9744,1.0631 32.7514,1.0431 C32.7414,1.0331 32.7214,1.0331 32.7004,1.0331 C26.7014,0.3131 20.4294,2.2591 15.7974,6.8901 L6.0084,16.6791 C-0.1836,22.8711 -1.5916,32.0221 1.7934,39.5111 C2.0664,40.1081 2.1574,40.7771 2.1074,41.4361 L1.8334,45.1041 C1.6414,47.6281 3.7184,49.7051 6.2414,49.5131 L8.4004,49.3501 L9.9104,49.2391 C10.5684,49.1881 11.2374,49.2791 11.8354,49.5531 C12.1394,49.6851 12.4434,49.8171 12.7474,49.9281 C12.8694,49.9891 12.9904,50.0291 13.1224,50.0701 C15.4534,50.9411 17.9154,51.3671 20.3684,51.3471 C25.5364,51.2961 30.7144,49.2901 34.6664,45.3371 L44.4564,35.5481 C50.7494,29.2651 52.0964,19.9221 48.5094,12.3721 C48.2154,11.7541 48.1144,11.0651 48.1654,10.3761 L48.4284,6.9101 C48.4894,6.0891 48.3064,5.3091 47.9424,4.6301 C47.8814,4.5191 47.8104,4.4071 47.7394,4.2961 C47.5974,4.0931 47.4454,3.9011 47.2634,3.7181 C47.0804,3.5261 46.8674,3.3531 46.6454,3.2011 C46.6454,3.1911 46.6344,3.1911 46.6344,3.1911 C46.4114,3.0491 46.1784,2.9181 45.9354,2.8161 C45.6924,2.7151 45.4394,2.6341 45.1654,2.5731 L45.1654,2.5731 Z" id="Stroke-34" stroke="#9B4B23" stroke-width="2"></path>
        </g>
    </g>
</svg>