
<svg width="54px" height="59px" viewBox="8 6 54 59" version="1.1" xmlns="http://www.w3.org/2000/svg" xmlns:xlink="http://www.w3.org/1999/xlink">
    <!-- Generator: Sketch 39.1 (31720) - http://www.bohemiancoding.com/sketch -->
    <desc>Created with Sketch.</desc>
    <defs></defs>
    <g id="Page-1" stroke="none" stroke-width="1" fill="none" fill-rule="evenodd" transform="translate(9.000000, 7.000000)">
        <g id="Group-19">
            <path d="M0,6 C0,2.69 2.69,0 6,0 L9,0 L9,1 C3.88,2.16 3.58,3.33 3.58,14.8 L3.58,15 L0,15 L0,6 Z" id="Fill-1" fill="#FFFFFF"></path>
            <path d="M37,7.75 C37,6.65 36.1,5.75 35,5.75 C33.9,5.75 33,6.65 33,7.75 C33,8.85 33.9,9.75 35,9.75 C36.1,9.75 37,8.85 37,7.75 L37,7.75 Z M46,8 C46,6.9 45.1,6 44,6 C42.9,6 42,6.9 42,8 C42,9.1 42.9,10 44,10 C45.1,10 46,9.1 46,8 L46,8 Z M3.58,14.8 C3.58,3.33 3.88,2.16 9,1 L9,0 L46,0 C49.31,0 52,2.69 52,6 L52,15 L51,15 L3.58,15 L3.58,14.8 Z M4.5,7.5 C4.5,8.6 5.4,9.5 6.5,9.5 L14.5,9.5 C15.05,9.5 15.55,9.28 15.91,8.91 C16.28,8.55 16.5,8.05 16.5,7.5 C16.5,6.4 15.6,5.5 14.5,5.5 L6.5,5.5 C5.95,5.5 5.45,5.72 5.09,6.09 C4.72,6.45 4.5,6.95 4.5,7.5 L4.5,7.5 Z" id="Fill-3" fill="#CAF9F8"></path>
            <path d="M52,15 L52,51 C52,54.31 49.31,57 46,57 L9.5,57 L9.5,56.2 C5.5,55.33 3.58,54.33 3.58,49.82 L3.58,15 L51,15 L52,15 Z M13,33.99 L13,34 C13,41.18 18.82,47 26,47 C33,47 38.71,41.46 38.98,34.53 C39,34.35 39,34.18 39,34 C39,26.82 33.18,21 26,21 C18.82,21 13.01,26.81 13,33.99 L13,33.99 Z" id="Fill-5" fill="#CAF9F8"></path>
            <path d="M9.5,57 L6,57 C2.69,57 0,54.31 0,51 L0,15 L3.58,15 L3.58,49.82 C3.58,54.33 5.5,55.33 9.5,56.2 L9.5,57 Z" id="Fill-7" fill="#FFFFFF"></path>
            <path d="M44,6 C45.1,6 46,6.9 46,8 C46,9.1 45.1,10 44,10 C42.9,10 42,9.1 42,8 C42,6.9 42.9,6 44,6" id="Fill-9" fill="#FFFFFF"></path>
            <path d="M39,34 C39,34.18 39,34.35 38.98,34.53 C35.29,37.92 29.57,37.82 26,34.25 C22.42,30.67 16.69,30.58 13,33.99 C13.01,26.81 18.82,21 26,21 C33.18,21 39,26.82 39,34" id="Fill-11" fill="#FFFFFF"></path>
            <path d="M35,5.75 C36.1,5.75 37,6.65 37,7.75 C37,8.85 36.1,9.75 35,9.75 C33.9,9.75 33,8.85 33,7.75 C33,6.65 33.9,5.75 35,5.75" id="Fill-13" fill="#FFFFFF"></path>
            <path d="M38.98,34.53 C38.71,41.46 33,47 26,47 C18.82,47 13,41.18 13,34 L13,33.99 C16.69,30.58 22.42,30.67 26,34.25 C29.57,37.82 35.29,37.92 38.98,34.53" id="Fill-15" fill="#CAF9F8"></path>
            <path d="M14.5,5.5 C15.6,5.5 16.5,6.4 16.5,7.5 C16.5,8.05 16.28,8.55 15.91,8.91 C15.55,9.28 15.05,9.5 14.5,9.5 L6.5,9.5 C5.4,9.5 4.5,8.6 4.5,7.5 C4.5,6.95 4.72,6.45 5.09,6.09 C5.45,5.72 5.95,5.5 6.5,5.5 L14.5,5.5 Z" id="Fill-17" fill="#FFFFFF"></path>
        </g>
        <path d="M52,15 L52,51 C52,54.31 49.31,57 46,57 L9.5,57 L6,57 C2.69,57 0,54.31 0,51 L0,15 L0,6 C0,2.69 2.69,0 6,0 L9,0 L46,0 C49.31,0 52,2.69 52,6 L52,15 L52,15 Z" id="Stroke-20" stroke="#9B4B23" stroke-width="2"></path>
        <polyline id="Stroke-22" stroke="#9B4B23" stroke-width="2" points="0 15 3.58 15 51 15"></polyline>
        <path d="M13,33.99 C13.01,26.81 18.82,21 26,21 C33.18,21 39,26.82 39,34 C39,34.18 39,34.35 38.98,34.53 C38.71,41.46 33,47 26,47 C18.82,47 13,41.18 13,34 L13,33.99 L13,33.99 Z" id="Stroke-24" stroke="#9B4B23" stroke-width="2"></path>
        <path d="M39.28,34.25 C39.18,34.35 39.08,34.44 38.98,34.53 C35.29,37.92 29.57,37.82 26,34.25 C22.42,30.67 16.69,30.58 13,33.99 C12.91,34.07 12.81,34.16 12.72,34.25" id="Stroke-26" stroke="#9B4B23" stroke-width="2"></path>
        <path d="M14.5,9.5 L6.5,9.5 C5.4,9.5 4.5,8.6 4.5,7.5 C4.5,6.95 4.72,6.45 5.09,6.09 C5.45,5.72 5.95,5.5 6.5,5.5 L14.5,5.5 C15.6,5.5 16.5,6.4 16.5,7.5 C16.5,8.05 16.28,8.55 15.91,8.91 C15.55,9.28 15.05,9.5 14.5,9.5 L14.5,9.5 Z" id="Stroke-28" stroke="#9B4B23"></path>
        <path d="M37,7.75 C37,8.85 36.1,9.75 35,9.75 C33.9,9.75 33,8.85 33,7.75 C33,6.65 33.9,5.75 35,5.75 C36.1,5.75 37,6.65 37,7.75 L37,7.75 Z" id="Stroke-30" stroke="#9B4B23"></path>
        <path d="M46,8 C46,9.1 45.1,10 44,10 C42.9,10 42,9.1 42,8 C42,6.9 42.9,6 44,6 C45.1,6 46,6.9 46,8 L46,8 Z" id="Stroke-32" stroke="#9B4B23"></path>
    </g>
</svg>